<?xml version="1.0" encoding="utf-8"?><!--Generator: Adobe Illustrator 24.0.1, SVG Export Plug-In . SVG Version: 6.00 Build 0)--><svg version="1.1" id="圖層_2" xmlns="http://www.w3.org/2000/svg" xmlns:xlink="http://www.w3.org/1999/xlink" x="0px" y="0px" viewBox="0 0 100 100" enable-background="new 0 0 100 100" xml:space="preserve"><path fill="#F2F2F2" stroke="#000000" stroke-width="3" stroke-linecap="round" stroke-linejoin="round" stroke-miterlimit="10" d=" M82.07,45.98H77.7c-1.66,0-3,1.34-3,3v0.51c0,1.66,1.34,3,3,3l4.37,0c2.33,0,4.21,2.11,4.21,4.72s-1.89,4.72-4.21,4.72l-4.37,0 c-1.66,0-3,1.34-3,3v0.51c0,1.66,1.34,3,3,3h4.37c5.53,0,10.02-5.03,10.02-11.23S87.6,45.98,82.07,45.98z"/><path fill="#F2F2F2" stroke="#000000" stroke-width="3" stroke-linecap="round" stroke-linejoin="round" stroke-miterlimit="10" d=" M17.93,45.98h4.37c1.66,0,3,1.34,3,3v0.51c0,1.66-1.34,3-3,3l-4.37,0c-2.33,0-4.21,2.11-4.21,4.72s1.89,4.72,4.21,4.72l4.37,0 c1.66,0,3,1.34,3,3v0.51c0,1.66-1.34,3-3,3h-4.37c-5.53,0-10.02-5.03-10.02-11.23C7.91,51.01,12.4,45.98,17.93,45.98z"/><g><path fill="#CCCCCC" stroke="#000000" stroke-width="3" stroke-linecap="round" stroke-linejoin="round" stroke-miterlimit="10" d=" M57.3,29.18H42.7V23c0-2.97,2.41-5.37,5.37-5.37h3.86c2.97,0,5.37,2.41,5.37,5.37V29.18z"/><path fill="#F2F2F2" stroke="#000000" stroke-width="3" stroke-linecap="round" stroke-linejoin="round" stroke-miterlimit="10" d=" M80.49,45.1c0-11.05-13.65-20.01-30.49-20.01S19.51,34.05,19.51,45.1c0,0.23,0.01,0.46,0.03,0.69h60.93 C80.48,45.56,80.49,45.33,80.49,45.1z"/><path fill="#F2F2F2" stroke="#000000" stroke-width="3" stroke-linecap="round" stroke-linejoin="round" stroke-miterlimit="10" d=" M28.18,39.01c-0.24,0.29-0.46,0.59-0.66,0.9"/><path fill="#F2F2F2" stroke="#000000" stroke-width="3" stroke-linecap="round" stroke-linejoin="round" stroke-miterlimit="10" d=" M43.76,31.2c-3.91,0.6-7.44,1.8-10.32,3.45"/></g><g><path fill="#ACBD81" stroke="#000000" stroke-width="3" stroke-linecap="round" stroke-linejoin="round" stroke-miterlimit="10" d=" M67.73,82.38H32.27c-7.05,0-12.76-5.71-12.76-12.76V45.79h60.99v23.82C80.49,76.66,74.78,82.38,67.73,82.38z"/><path fill="#ACBD81" stroke="#000000" stroke-width="3" stroke-linecap="round" stroke-linejoin="round" stroke-miterlimit="10" d=" M74.58,72.72c-2.03,3.01-5.47,4.99-9.38,4.99"/></g><metadata xmlns:d="https://loading.io/stock/">
<d:name>kitchenware</d:name>
<d:tags>kitchenware,cooking,culinary,backing,pot,pan</d:tags>
<d:license>by</d:license>
<d:slug>u2uqv8</d:slug>
</metadata></svg>