<?xml version="1.0" encoding="utf-8"?><!--Generator: Adobe Illustrator 24.0.1, SVG Export Plug-In . SVG Version: 6.00 Build 0)--><svg version="1.1" id="圖層_2" xmlns="http://www.w3.org/2000/svg" xmlns:xlink="http://www.w3.org/1999/xlink" x="0px" y="0px" viewBox="0 0 100 100" enable-background="new 0 0 100 100" xml:space="preserve"><path fill="#CCCCCC" stroke="#000000" stroke-width="3" stroke-linecap="round" stroke-linejoin="round" stroke-miterlimit="10" d=" M85.8,63.52h-7.1V51.41h7.1c1.27,0,2.29,1.03,2.29,2.29v7.53C88.09,62.49,87.07,63.52,85.8,63.52z"/><g><path fill="#F5E169" stroke="#000000" stroke-width="3" stroke-linecap="round" stroke-linejoin="round" stroke-miterlimit="10" d=" M66.86,14.58H26.87c-4.59,0-8.31,3.72-8.31,8.31v0.29c0,4.07,2.93,7.45,6.79,8.16c-1.53,1.88-2.45,4.27-2.45,6.88v16.15h47.91 V38.22c0-2.61-0.92-5-2.45-6.88c3.86-0.71,6.79-4.09,6.79-8.16v-0.29C75.17,18.3,71.45,14.58,66.86,14.58z"/><path fill="#FFFFFF" d="M59.86,52.5H33.87c-2.17,0-3.92-1.76-3.92-3.92V36.18c0-2.17,1.76-3.92,3.92-3.92h25.99 c2.17,0,3.92,1.76,3.92,3.92v12.39C63.78,50.74,62.02,52.5,59.86,52.5z"/></g><path fill="#CCCCCC" stroke="#000000" stroke-width="3" stroke-linecap="round" stroke-linejoin="round" stroke-miterlimit="10" d=" M24.32,85.42h-4.18c-1.53,0-2.78-1.24-2.78-2.78v-4.35h9.73v4.35C27.1,84.17,25.85,85.42,24.32,85.42z"/><path fill="#CCCCCC" stroke="#000000" stroke-width="3" stroke-linecap="round" stroke-linejoin="round" stroke-miterlimit="10" d=" M73.42,85.42h-4.18c-1.53,0-2.78-1.24-2.78-2.78v-4.35h9.73v4.35C76.2,84.17,74.95,85.42,73.42,85.42z"/><g><path fill="#F2F2F2" stroke="#000000" stroke-width="3" stroke-linecap="round" stroke-linejoin="round" stroke-miterlimit="10" d=" M78.82,78.67H14.91c-1.66,0-3-1.34-3-3v-31.6c0-1.66,1.34-3,3-3h63.91c1.66,0,3,1.34,3,3v31.6C81.82,77.33,80.48,78.67,78.82,78.67 z"/><line fill="none" stroke="#000000" stroke-width="3" stroke-linecap="round" stroke-linejoin="round" stroke-miterlimit="10" x1="46.27" y1="51.39" x2="25.66" y2="69.83"/><line fill="none" stroke="#000000" stroke-width="3" stroke-linecap="round" stroke-linejoin="round" stroke-miterlimit="10" x1="33.12" y1="49.83" x2="20.4" y2="61.2"/></g><metadata xmlns:d="https://loading.io/stock/">
<d:name>kitchenware</d:name>
<d:tags>kitchenware,cooking,culinary,backing,machine,toast,toaster</d:tags>
<d:license>by</d:license>
<d:slug>ta1rjg</d:slug>
</metadata></svg>