<?xml version="1.0" encoding="utf-8"?><!--Generator: Adobe Illustrator 24.0.1, SVG Export Plug-In . SVG Version: 6.00 Build 0)--><svg version="1.1" id="圖層_2" xmlns="http://www.w3.org/2000/svg" xmlns:xlink="http://www.w3.org/1999/xlink" x="0px" y="0px" viewBox="0 0 100 100" enable-background="new 0 0 100 100" xml:space="preserve"><g><path fill="#CCCCCC" stroke="#000000" stroke-width="3" stroke-linecap="round" stroke-linejoin="round" stroke-miterlimit="10" d=" M48.23,38.97H33.43V33.6c0-3.01,2.44-5.45,5.45-5.45h3.91c3.01,0,5.45,2.44,5.45,5.45V38.97z"/><path fill="#F2F2F2" stroke="#000000" stroke-width="3" stroke-linecap="round" stroke-linejoin="round" stroke-miterlimit="10" d=" M75.15,52.38c0-12.44-15.36-17.02-34.32-17.02S6.51,39.95,6.51,52.38c0,0.26,0.02,0.52,0.03,0.78h68.58 C75.13,52.9,75.15,52.65,75.15,52.38z"/></g><g><path fill="#CCCCCC" stroke="#000000" stroke-width="3" stroke-linecap="round" stroke-linejoin="round" stroke-miterlimit="10" d=" M90.51,62.3L90.51,62.3c-7.58,0-15.08-1.49-22.07-4.39l-2.69-1.11c-0.72-0.3-1.19-1-1.19-1.78l0,0c0-1.06,0.86-1.93,1.93-1.93 h24.02c1.66,0,3,1.34,3,3v3.21C93.51,60.96,92.17,62.3,90.51,62.3z"/><g><path fill="#F7B26A" stroke="#000000" stroke-width="3" stroke-linecap="round" stroke-linejoin="round" stroke-miterlimit="10" d=" M61.89,71.84H19.76c-3.75,0-7.1-2.32-8.42-5.82L6.49,53.16h68.67l-4.85,12.86C68.99,69.52,65.64,71.84,61.89,71.84z"/><line fill="none" stroke="#000000" stroke-width="3" stroke-linecap="round" stroke-linejoin="round" stroke-miterlimit="10" x1="51.96" y1="66.31" x2="62.59" y2="66.31"/></g></g><metadata xmlns:d="https://loading.io/stock/">
<d:name>kitchenware</d:name>
<d:tags>kitchenware,cooking,culinary,backing,pan,pot</d:tags>
<d:license>by</d:license>
<d:slug>xyx13c</d:slug>
</metadata></svg>