<?xml version="1.0" encoding="utf-8"?><!--Generator: Adobe Illustrator 24.0.1, SVG Export Plug-In . SVG Version: 6.00 Build 0)--><svg version="1.1" id="圖層_2" xmlns="http://www.w3.org/2000/svg" xmlns:xlink="http://www.w3.org/1999/xlink" x="0px" y="0px" viewBox="0 0 100 100" enable-background="new 0 0 100 100" xml:space="preserve"><path fill="#E15C64" stroke="#000000" stroke-width="3" stroke-linecap="round" stroke-linejoin="round" stroke-miterlimit="10" d=" M55,30.4c0,3.69-2.75,4.87-5,4.87c-2.08,0-5-1.35-5-5.39s5.52-10.27,5.52-10.27C50.91,25.48,55,25.81,55,30.4z"/><path fill="#E15C64" stroke="#000000" stroke-width="3" stroke-linecap="round" stroke-linejoin="round" stroke-miterlimit="10" d=" M34,30.4c0,3.69-2.75,4.87-5,4.87c-2.08,0-5-1.35-5-5.39s5.52-10.27,5.52-10.27C29.91,25.48,34,25.81,34,30.4z"/><path fill="#E15C64" stroke="#000000" stroke-width="3" stroke-linecap="round" stroke-linejoin="round" stroke-miterlimit="10" d=" M76,30.4c0,3.69-2.75,4.87-5,4.87c-2.08,0-5-1.35-5-5.39s5.52-10.27,5.52-10.27C71.91,25.48,76,25.81,76,30.4z"/><g><path fill="#808080" stroke="#000000" stroke-width="3" stroke-linecap="round" stroke-linejoin="round" stroke-miterlimit="10" d=" M24.68,80.38h-6.14c-1.66,0-3-1.34-3-3V71.7h12.14v5.68C27.68,79.04,26.34,80.38,24.68,80.38z"/><path fill="#808080" stroke="#000000" stroke-width="3" stroke-linecap="round" stroke-linejoin="round" stroke-miterlimit="10" d=" M75.32,80.38h6.14c1.66,0,3-1.34,3-3V71.7H72.32v5.68C72.32,79.04,73.66,80.38,75.32,80.38z"/><line fill="none" stroke="#000000" stroke-width="3" stroke-linecap="round" stroke-linejoin="round" stroke-miterlimit="10" x1="50" y1="41.38" x2="50" y2="53.51"/><path fill="none" stroke="#000000" stroke-width="3" stroke-linecap="round" stroke-linejoin="round" stroke-miterlimit="10" d=" M84.46,53.51v-9.13c0-1.66-1.34-3-3-3H70"/><path fill="none" stroke="#000000" stroke-width="3" stroke-linecap="round" stroke-linejoin="round" stroke-miterlimit="10" d=" M30,41.38H18.54c-1.66,0-3,1.34-3,3v9.13"/><path fill="#F2F2F2" stroke="#000000" stroke-width="3" stroke-linecap="round" stroke-linejoin="round" stroke-miterlimit="10" d=" M87.37,74.08H12.63c-1.66,0-3-1.34-3-3V51.72c0-1.66,1.34-3,3-3h74.74c1.66,0,3,1.34,3,3v19.36 C90.37,72.74,89.03,74.08,87.37,74.08z"/><circle fill="#B3B3B3" stroke="#000000" stroke-width="3" stroke-linecap="round" stroke-linejoin="round" stroke-miterlimit="10" cx="50" cy="61.4" r="8"/><line fill="none" stroke="#000000" stroke-width="3" stroke-linecap="round" stroke-linejoin="round" stroke-miterlimit="10" x1="50" y1="61.4" x2="55.66" y2="55.74"/><line fill="none" stroke="#000000" stroke-width="3" stroke-linecap="round" stroke-linejoin="round" stroke-miterlimit="10" x1="77.23" y1="55.08" x2="83.01" y2="55.08"/></g><metadata xmlns:d="https://loading.io/stock/">
<d:name>kitchenware</d:name>
<d:tags>kitchenware,cooking,culinary,backing,gas,fire,gas stove</d:tags>
<d:license>by</d:license>
<d:slug>j6bfwa</d:slug>
</metadata></svg>