<?xml version="1.0" encoding="utf-8"?><!--Generator: Adobe Illustrator 24.0.1, SVG Export Plug-In . SVG Version: 6.00 Build 0)--><svg version="1.1" id="圖層_2" xmlns="http://www.w3.org/2000/svg" xmlns:xlink="http://www.w3.org/1999/xlink" x="0px" y="0px" viewBox="0 0 100 100" enable-background="new 0 0 100 100" xml:space="preserve"><circle fill="#F7B26A" stroke="#000000" stroke-width="3" stroke-linecap="round" stroke-linejoin="round" stroke-miterlimit="10" cx="70.64" cy="38.95" r="19.36"/><g><ellipse transform="matrix(0.7983 -0.6023 0.6023 0.7983 -17.7323 28.0019)" fill="#FFFFFF" stroke="#000000" stroke-width="3" stroke-linecap="round" stroke-linejoin="round" stroke-miterlimit="10" cx="32.94" cy="40.47" rx="19.87" ry="27.51"/><ellipse transform="matrix(0.7983 -0.6023 0.6023 0.7983 -15.2533 23.8161)" fill="#F5E169" stroke="#000000" stroke-width="3" stroke-linecap="round" stroke-linejoin="round" stroke-miterlimit="10" cx="27.93" cy="34.68" rx="10.19" ry="11.72"/></g><path fill="#ACBD81" stroke="#000000" stroke-width="3" stroke-linecap="round" stroke-linejoin="round" stroke-miterlimit="10" d=" M73.83,62.6c0.51-2.48-1.08-4.91-3.56-5.42c-0.08-0.02-0.16-0.01-0.24-0.02c1.21-0.61,2.16-1.73,2.45-3.16 c0.51-2.48-1.08-4.91-3.56-5.42c-0.54-0.11-1.07-0.11-1.58-0.03c0.38-2.4-1.18-4.7-3.59-5.2c-0.59-0.12-1.17-0.12-1.73-0.02 c-0.04-0.64-0.2-1.28-0.52-1.88c-1.19-2.24-3.97-3.08-6.2-1.89c-0.06,0.03-0.1,0.07-0.15,0.1c-0.65-0.88-1.6-1.54-2.75-1.78 c-1.96-0.4-3.87,0.52-4.85,2.14c-1.36-0.21-2.67,0.2-3.65,1.04c-0.61-0.61-1.4-1.06-2.31-1.25c-2.48-0.51-4.91,1.08-5.42,3.56 c-0.04,0.19-0.04,0.38-0.06,0.57c-0.18-0.06-0.35-0.13-0.54-0.17c-2.48-0.51-4.91,1.08-5.42,3.56c-0.25,1.21,0.01,2.4,0.62,3.37 c-1.5,0.5-2.72,1.75-3.06,3.41c-0.41,1.97,0.53,3.88,2.16,4.86c-1.39,0.55-2.49,1.76-2.81,3.33c-0.48,2.32,0.9,4.58,3.12,5.28 c-0.24,2.31,1.29,4.48,3.61,4.96c1.42,0.29,2.81-0.12,3.84-0.98l-2,9.68l15.97,3.3l1.6-7.74c0.62,0.63,1.41,1.08,2.34,1.27 c1.98,0.41,3.91-0.54,4.87-2.19c0.24,0.09,0.48,0.18,0.73,0.23c2.48,0.51,4.91-1.08,5.42-3.56c0.04-0.19,0.04-0.38,0.06-0.57 c0.18,0.06,0.35,0.13,0.54,0.17c2.48,0.51,4.91-1.08,5.42-3.56c0.24-1.16,0.01-2.29-0.55-3.23C72.93,64.7,73.59,63.75,73.83,62.6z"/><metadata xmlns:d="https://loading.io/stock/">
<d:name>kitchenware</d:name>
<d:tags>kitchenware,cooking,culinary,vegetable,broccoli,egg,carrot,healthy</d:tags>
<d:license>by</d:license>
<d:slug>x38rnv</d:slug>
</metadata></svg>