<?xml version="1.0" encoding="utf-8"?><!--Generator: Adobe Illustrator 24.0.1, SVG Export Plug-In . SVG Version: 6.00 Build 0)--><svg version="1.1" id="圖層_2" xmlns="http://www.w3.org/2000/svg" xmlns:xlink="http://www.w3.org/1999/xlink" x="0px" y="0px" viewBox="0 0 100 100" enable-background="new 0 0 100 100" xml:space="preserve"><path fill="#CCCCCC" stroke="#000000" stroke-width="3" stroke-linecap="round" stroke-linejoin="round" stroke-miterlimit="10" d=" M43,39.78H13v-9.59c0-2.99,2.42-5.41,5.41-5.41h19.18c2.99,0,5.41,2.42,5.41,5.41V39.78z"/><path fill="#CCCCCC" stroke="#000000" stroke-width="3" stroke-linecap="round" stroke-linejoin="round" stroke-miterlimit="10" d=" M87,24.98H57v-9.29c0-3.3,2.67-5.97,5.97-5.97h18.07c3.3,0,5.97,2.67,5.97,5.97V24.98z"/><g><path fill="#F5E169" stroke="#000000" stroke-width="3" stroke-linecap="round" stroke-linejoin="round" stroke-miterlimit="10" d=" M84.61,87.28H59.39c-1.32,0-2.39-1.07-2.39-2.39V24.72h30v60.17C87,86.21,85.93,87.28,84.61,87.28z"/><path fill="#FFFFFF" stroke="#000000" stroke-width="3" stroke-miterlimit="10" d="M87,76.55H68.71c-1.66,0-3-1.34-3-3V41.8 c0-1.66,1.34-3,3-3H87V76.55z"/></g><g><path fill="#F5E169" stroke="#000000" stroke-width="3" stroke-linecap="round" stroke-linejoin="round" stroke-miterlimit="10" d=" M40.61,86.78H15.39c-1.32,0-2.39-1.07-2.39-2.39V39.6h30v44.79C43,85.71,41.93,86.78,40.61,86.78z"/><path fill="#FFFFFF" stroke="#000000" stroke-width="3" stroke-miterlimit="10" d="M43,76.55H23.97c-1.66,0-3-1.34-3-3V53.8 c0-1.66,1.34-3,3-3H43V76.55z"/></g><circle fill="#FFFFFF" stroke="#000000" stroke-width="3" stroke-linecap="round" stroke-linejoin="round" stroke-miterlimit="10" cx="28" cy="32.28" r="0.5"/><circle fill="#FFFFFF" stroke="#000000" stroke-width="3" stroke-linecap="round" stroke-linejoin="round" stroke-miterlimit="10" cx="35" cy="32.28" r="0.5"/><circle fill="#FFFFFF" stroke="#000000" stroke-width="3" stroke-linecap="round" stroke-linejoin="round" stroke-miterlimit="10" cx="21" cy="32.28" r="0.5"/><circle fill="#FFFFFF" stroke="#000000" stroke-width="3" stroke-linecap="round" stroke-linejoin="round" stroke-miterlimit="10" cx="72" cy="17.35" r="0.5"/><circle fill="#FFFFFF" stroke="#000000" stroke-width="3" stroke-linecap="round" stroke-linejoin="round" stroke-miterlimit="10" cx="79" cy="17.35" r="0.5"/><circle fill="#FFFFFF" stroke="#000000" stroke-width="3" stroke-linecap="round" stroke-linejoin="round" stroke-miterlimit="10" cx="65" cy="17.35" r="0.5"/><metadata xmlns:d="https://loading.io/stock/">
<d:name>kitchenware</d:name>
<d:tags>kitchenware,cooking,culinary,seasoning,pepper,salt</d:tags>
<d:license>by</d:license>
<d:slug>ybf0gp</d:slug>
</metadata></svg>